<?xml version="1.0" encoding="utf-8"?>
<!-- Generator: Adobe Illustrator 25.0.1, SVG Export Plug-In . SVG Version: 6.00 Build 0)  -->
<svg version="1.1" id="Layer_1" xmlns="http://www.w3.org/2000/svg" xmlns:xlink="http://www.w3.org/1999/xlink" x="0px" y="0px"
	 viewBox="0 0 425 119" style="enable-background:new 0 0 425 119;" xml:space="preserve">
<style type="text/css">
	.st0{fill:#070009;}
	.st1{fill-rule:evenodd;clip-rule:evenodd;fill:#070009;}
	.st2{filter:url(#Adobe_OpacityMaskFilter);}
	.st3{fill:url(#SVGID_2_);}
	.st4{mask:url(#SVGID_1_);fill-rule:evenodd;clip-rule:evenodd;fill:#D9B56B;}
	.st5{fill-rule:evenodd;clip-rule:evenodd;fill:#D9B56B;}
</style>
<path class="st0" d="M46.1,98.7c-1.6,0-3.1,0-4.3,0.2c-1.2,0.2-2.2,0.4-3,0.7c-0.7,0.4-1.2,0.8-1.5,1.3c-0.2,0.5-0.1,1.1,0.3,1.8
	c0.2,0.3,0.4,0.6,0.7,0.9c0.3,0.3,0.5,0.7,0.8,1c0.3,0.3,0.6,0.6,0.9,1c0.3,0.3,0.5,0.6,0.7,0.8c0.2,0.2,0.3,0.4,0.4,0.6
	c0.1,0.1,0.1,0.2,0,0.2c-0.4,0-0.8,0-1.3-0.1c-0.5-0.1-1-0.3-1.5-0.5c-0.5-0.2-1-0.5-1.5-0.9c-0.5-0.3-1-0.8-1.3-1.2
	c-0.4-0.5-0.7-1-0.9-1.7c-0.2-0.6-0.3-1.3-0.2-2.1c0-0.5,0.2-1,0.4-1.5c0.2-0.4,0.5-0.8,0.9-1.2c0.4-0.4,0.8-0.7,1.3-1
	c0.5-0.3,1-0.6,1.6-0.9c-0.3-0.3-0.6-0.5-0.9-0.7c-0.3-0.2-0.5-0.4-0.7-0.6c-0.2-0.2-0.4-0.4-0.5-0.6c-0.1-0.2-0.1-0.5,0-0.8
	c0-0.3,0.2-0.7,0.4-1.1c0.2-0.4,0.6-1,1-1.5c0.6-0.6,1.2-1,1.7-1.4c0.5-0.3,1.1-0.6,1.6-0.8c0.5-0.2,1-0.2,1.5-0.3
	c0.5,0,0.9,0,1.3,0.1c0.4,0.1,0.8,0.2,1.1,0.4c0.3,0.2,0.6,0.4,0.8,0.6c0.2,0.2,0.3,0.4,0.3,0.6c0,0.2-0.1,0.5-0.2,0.7
	c-0.1,0.3-0.3,0.5-0.4,0.8c-0.2,0.3-0.4,0.5-0.5,0.8c-0.3-0.1-0.6-0.3-1-0.5c-0.4-0.2-0.8-0.3-1.3-0.4c-0.5-0.1-1-0.1-1.6,0
	c-0.6,0.1-1.2,0.3-1.8,0.6c0,0.1,0.2,0.2,0.3,0.4c0.1,0.2,0.3,0.3,0.5,0.5c0.2,0.2,0.4,0.4,0.7,0.6c0.3,0.2,0.5,0.4,0.8,0.6
	c0.2,0.2,0.5,0.4,0.7,0.6c0.2,0.2,0.4,0.3,0.6,0.5l4.5,0L46.1,98.7z M49.5,89.8c0.6-0.2,1.2-0.4,1.8-0.6c0.6-0.2,1.2-0.4,1.8-0.6
	c0,1,0.1,1.9,0.1,2.9c0,1,0,1.9,0.1,2.9c0,1,0,1.9,0.1,2.9c0,1,0.1,2,0.1,2.9c0,0.6-0.1,1.1-0.3,1.6c-0.2,0.5-0.4,0.9-0.7,1.3
	c-0.3,0.4-0.6,0.7-0.9,0.9c-0.3,0.2-0.6,0.3-0.9,0.3L49.5,89.8z M64.9,102.6h-8.5c-0.3,0-0.5-0.1-0.6-0.3c-0.2-0.2-0.3-0.4-0.3-0.7
	c0-0.3-0.1-0.6,0-1c0-0.4,0.1-0.8,0.2-1.3c0.1-0.4,0.3-0.9,0.5-1.4c0.2-0.5,0.5-0.9,0.7-1.4l1-0.3c-0.2,0.5-0.3,0.9-0.3,1.2
	c0,0.4,0,0.6,0.1,0.9c0.1,0.2,0.3,0.4,0.5,0.5c0.3,0.1,0.6,0.2,1.1,0.2H65L63,93.5l2.7-2.4l2.9,7.9h1.9v3.5h-1.2
	c-0.7,0-1.4-0.2-2-0.5c-0.6-0.3-1-0.7-1.4-1.3L64.9,102.6z M76,93.2c0.2,0.3,0.5,0.6,0.7,0.9c0.2,0.3,0.4,0.7,0.6,1
	c0.2,0.4,0.4,0.7,0.5,1.1c0.1,0.4,0.2,0.8,0.2,1.2c0,0.3,0,0.7-0.1,1.1c-0.1,0.4-0.3,0.7-0.5,1.1c-0.2,0.4-0.5,0.7-0.8,1
	c-0.3,0.3-0.6,0.6-1,0.9c-0.3,0.2-0.7,0.5-1.1,0.6c-0.4,0.1-0.7,0.2-1.1,0.2h-1.2v0h-2.2v-3.5h2.2v0h1.6c0.4,0,0.6-0.1,0.7-0.3
	c0.1-0.2,0.2-0.5,0.1-0.8c0-0.3-0.2-0.7-0.4-1c-0.2-0.4-0.5-0.7-0.8-1L76,93.2z M73,104l2.4,2.4l-2.1,2.1l-2.4-2.4L73,104z
	 M90.4,89.2c0.6-0.2,1.1-0.4,1.7-0.6c0.6-0.2,1.1-0.4,1.7-0.6l0.2,5.7c0,0.5,0,1,0,1.5c0,0.5,0,0.9-0.1,1.4
	c-0.1,0.4-0.2,0.9-0.3,1.3c-0.1,0.5-0.3,0.9-0.6,1.4c-0.3,0.5-0.6,1-1,1.5c-0.4,0.4-0.8,0.8-1.3,1.1c-0.5,0.3-1.1,0.6-1.8,0.8
	c-0.7,0.2-1.5,0.4-2.5,0.5c-0.1,0-0.3,0-0.6,0.1c-0.2,0-0.5,0.1-0.9,0.1c-0.3,0-0.7,0.1-1.1,0.1c-0.4,0-0.7,0.1-1.1,0.1
	s-0.7,0.1-1.1,0.1c-0.3,0-0.6,0-0.9,0s-0.4,0-0.5-0.1c-0.1,0-0.1-0.1-0.1-0.2c0,0,0.2-0.1,0.4-0.2c0.2-0.1,0.6-0.2,1-0.4
	c0.4-0.2,0.9-0.4,1.4-0.6c0.5-0.2,1.1-0.5,1.7-0.8c0.6-0.3,1.1-0.6,1.7-0.9c0.6-0.3,1.1-0.7,1.7-1C88,99,87.8,98.4,87.6,98
	c-0.2-0.5-0.5-0.9-0.7-1.2c-0.3-0.3-0.6-0.6-0.9-0.9c-0.3-0.3-0.6-0.5-0.9-0.6c-0.3-0.2-0.5-0.3-0.8-0.5c-0.2-0.1-0.4-0.2-0.5-0.3
	c0,0.1,0,0.3,0,0.4c0,0.1,0,0.2-0.1,0.3c0,0.1-0.1,0.2-0.1,0.3c0,0.1-0.2,0.1-0.4,0c-0.2,0-0.4-0.1-0.7-0.1
	c-0.2-0.1-0.5-0.2-0.8-0.3c-0.3-0.1-0.6-0.2-0.8-0.3c-0.3-0.1-0.5-0.2-0.7-0.3c-0.2-0.1-0.3-0.2-0.4-0.3c-0.2-0.3-0.4-0.5-0.5-0.9
	c-0.1-0.3-0.1-0.7-0.1-1c0-0.4,0.1-0.7,0.2-1c0.1-0.3,0.3-0.6,0.5-0.9c0.2-0.2,0.4-0.4,0.6-0.5c0.2-0.1,0.4-0.2,0.6-0.1
	c0.5,0.2,1.1,0.4,1.6,0.5c0.5,0.2,1.1,0.4,1.6,0.6c0.5,0.2,1,0.5,1.5,0.7c0.5,0.3,0.9,0.6,1.4,1c0.4,0.4,0.7,0.8,1,1.2
	s0.5,1,0.7,1.5c0.2,0.5,0.4,1,0.5,1.5c0.1,0.5,0.2,1,0.2,1.5c0.3-0.3,0.6-0.7,0.8-1c0.2-0.3,0.4-0.7,0.4-1c-0.1-1.2-0.2-2.4-0.3-3.6
	C90.6,91.6,90.5,90.4,90.4,89.2z M83.9,106c0,0.2-0.1,0.4-0.2,0.7c-0.1,0.3-0.2,0.5-0.3,0.7c-0.5,0.2-0.9,0.4-1.3,0.6
	c-0.4,0.2-0.7,0.4-1,0.5c-0.3,0.1-0.5,0.2-0.6,0.3c-0.2,0-0.2,0-0.2,0c0-0.1,0-0.2,0-0.2c0,0,0-0.1,0-0.1c0-0.1,0-0.2,0.1-0.2
	c0.1-0.1,0.1-0.1,0.3-0.2c0.1-0.1,0.2-0.1,0.3-0.2c0.1-0.1,0.2-0.1,0.2-0.2c-0.3-0.1-0.5-0.3-0.6-0.5c-0.1-0.2-0.2-0.4-0.1-0.6
	c0-0.2,0.1-0.4,0.2-0.6c0.1-0.2,0.3-0.4,0.5-0.6c0.2-0.2,0.4-0.3,0.7-0.4c0.2-0.1,0.5-0.1,0.7-0.1c0.3,0,0.4,0,0.5,0.1
	c0,0.1,0,0.2,0,0.4c0,0.1-0.1,0.3-0.3,0.4c-0.1,0.1-0.2,0.2-0.3,0.2c0,0-0.1,0-0.1,0c0,0-0.1,0-0.1-0.1c0,0-0.1,0-0.1,0
	c0,0-0.1,0-0.1,0c-0.2,0.1-0.3,0.1-0.4,0.3c-0.1,0.1-0.1,0.2-0.1,0.3c0,0.1,0.1,0.2,0.2,0.3c0.1,0.1,0.3,0.1,0.5,0.1
	c0.2,0,0.5,0,0.8-0.1C83.2,106.4,83.5,106.3,83.9,106z M96.3,89.8c0.6-0.2,1.2-0.4,1.8-0.6c0.6-0.2,1.2-0.4,1.8-0.6
	c0,1,0.1,1.9,0.1,2.9c0,1,0,1.9,0.1,2.9c0,1,0,1.9,0.1,2.9c0,1,0.1,2,0.1,2.9c0,0.6-0.1,1.1-0.3,1.6c-0.2,0.5-0.4,0.9-0.7,1.3
	c-0.3,0.4-0.6,0.7-0.9,0.9c-0.3,0.2-0.6,0.3-0.9,0.3L96.3,89.8z M110.7,94c0.4,0.6,0.8,1.2,1,1.9c0.3,0.6,0.4,1.3,0.5,2
	c0.1,0.7,0.1,1.4,0.1,2.1c0,0.7-0.2,1.4-0.3,2.1c-0.1,0.4-0.4,0.8-0.7,1.3c-0.3,0.4-0.7,0.9-1.2,1.3s-1,0.8-1.6,1.1
	c-0.6,0.4-1.2,0.7-1.8,1c-0.6,0.3-1.2,0.5-1.9,0.6s-1.2,0.2-1.8,0.2c-0.1,0-0.4-0.1-0.7-0.2c-0.3-0.1-0.7-0.3-1-0.5
	c-0.4-0.2-0.7-0.4-1.1-0.6c-0.4-0.2-0.7-0.4-1-0.6c-0.3-0.2-0.5-0.3-0.6-0.5c-0.1-0.1-0.1-0.2,0-0.2c0.3,0,0.6,0,1.1,0
	s1-0.1,1.6-0.2c0.6-0.1,1.2-0.2,1.9-0.4c0.7-0.1,1.4-0.4,2.1-0.6c0.7-0.2,1.4-0.5,2.1-0.9c0.7-0.3,1.3-0.7,1.9-1.2
	c-0.4-0.1-0.8-0.2-1.2-0.3c-0.4-0.1-0.9-0.2-1.3-0.3c-0.5-0.1-0.9-0.2-1.3-0.4c-0.4-0.1-0.8-0.3-1.1-0.5c-0.3-0.2-0.6-0.4-0.8-0.7
	c-0.2-0.2-0.3-0.5-0.3-0.9c0-0.4,0-0.8,0.2-1.3c0.1-0.5,0.3-0.9,0.5-1.4c0.2-0.5,0.5-0.9,0.8-1.4c0.3-0.5,0.7-0.8,1-1.2
	c0.4-0.3,0.8-0.6,1.2-0.8c0.4-0.2,0.8-0.3,1.3-0.3c0.4,0,0.8,0.1,1.3,0.3C110,93.1,110.4,93.5,110.7,94z M107.7,95.7
	c-0.2,0-0.3,0-0.5,0.1c-0.2,0.1-0.4,0.2-0.6,0.4c-0.2,0.2-0.4,0.4-0.4,0.6c0,0.2,0,0.3,0.1,0.4c0.1,0.1,0.3,0.2,0.5,0.3
	c0.2,0.1,0.5,0.2,0.8,0.2c0.3,0.1,0.6,0.1,0.9,0.2c0.3,0.1,0.6,0.1,0.9,0.2c0,0,0,0,0-0.2c0-0.1-0.1-0.3-0.2-0.5
	c-0.1-0.2-0.2-0.4-0.3-0.6c-0.1-0.2-0.2-0.4-0.4-0.6c-0.1-0.2-0.3-0.3-0.5-0.5C108.1,95.8,107.9,95.8,107.7,95.7z M131.9,99.1h0.7
	v3.5h-0.8c-1,0-1.8,0-2.5-0.2c-0.6-0.2-1.2-0.4-1.6-0.7c-0.4-0.3-0.7-0.7-0.9-1.1c-0.2-0.4-0.4-0.8-0.5-1.2
	c-0.4,0.1-0.8,0.3-1.2,0.4c-0.4,0.1-0.8,0.3-1.2,0.4s-0.7,0.3-1,0.5c-0.3,0.1-0.6,0.3-0.9,0.5c-0.4,0.2-0.7,0.5-0.8,0.7
	c-0.1,0.2-0.1,0.5,0,0.8c0.1,0.3,0.3,0.5,0.5,0.8c0.3,0.3,0.6,0.5,1,0.8c0.4,0.3,0.8,0.5,1.3,0.8c0.5,0.3,1,0.5,1.5,0.8
	c0.5,0.3,1,0.5,1.5,0.8c0.5,0.2,1,0.5,1.5,0.7c0.4,0.2,0.8,0.4,1.2,0.6c0.4,0.2,0.6,0.4,0.8,0.6c0,0-0.1,0-0.4,0c-0.3,0-0.7,0-1.2,0
	c-0.5,0-1.1,0-1.7,0c-0.6,0-1.3-0.1-2-0.2c-0.7-0.1-1.4-0.2-2.1-0.4c-0.7-0.2-1.4-0.4-2-0.7c-0.6-0.3-1.2-0.6-1.7-1.1
	c-0.5-0.4-0.8-0.9-1.1-1.5c-0.2-0.6-0.4-1.3-0.3-2.1c0-0.8,0.3-1.7,0.7-2.7c0.1-0.4,0.4-0.8,0.8-1.1c0.4-0.3,0.8-0.6,1.4-0.9
	c0.5-0.3,1.1-0.5,1.7-0.8c0.6-0.2,1.2-0.5,1.9-0.6c-0.2-0.3-0.5-0.6-0.7-0.9c-0.2-0.3-0.5-0.5-0.8-0.6c-0.3-0.1-0.6-0.2-0.9-0.2
	c-0.3,0-0.6,0.1-0.9,0.3c-0.2,0.1-0.4,0.2-0.4,0c-0.1-0.1-0.1-0.3,0-0.5c0.1-0.2,0.2-0.5,0.4-0.9c0.2-0.3,0.4-0.7,0.6-1
	c0.2-0.3,0.5-0.6,0.7-0.9s0.5-0.4,0.7-0.5c0.4-0.1,0.8-0.2,1.3-0.1c0.5,0,1,0.1,1.4,0.3c0.5,0.2,1,0.4,1.4,0.7
	c0.5,0.3,0.9,0.6,1.2,1c0.4,0.3,0.7,0.7,0.9,1.1c0.2,0.4,0.4,0.8,0.5,1.3c0,0.4,0,0.9-0.2,1.3c-0.2,0.5-0.5,0.9-1,1.3
	c0.1,0.3,0.2,0.5,0.4,0.7c0.2,0.2,0.4,0.3,0.6,0.4c0.2,0,0.5,0.1,0.8,0.1C131.1,99.1,131.5,99.1,131.9,99.1z M132.3,102.6v-3.5h0.5
	v0h1.4c0-0.4,0-0.8,0.1-1.2c0.1-0.5,0.3-0.9,0.5-1.4c0.2-0.5,0.5-0.9,0.8-1.3c0.3-0.4,0.6-0.8,1-1.1c0.4-0.4,0.7-0.6,1.1-0.8
	s0.8-0.3,1.2-0.4c0.4,0,0.8,0.1,1.2,0.3c0.4,0.2,0.8,0.6,1.2,1.1c0.5,0.8,1,1.6,1.2,2.5c0.3,0.9,0.4,1.8,0.4,2.7l-0.1,0.7
	c0,0.8-0.2,1.4-0.5,1.8c-0.3,0.4-0.7,0.6-1.3,0.6h-8.3v0H132.3z M135.1,87.3l1.8,1.8l1.8-1.8l2.3,2.3l-2,2l-1.8-1.8l-1.8,1.8
	l-2.3-2.3L135.1,87.3z M138.4,95.9c-0.2,0-0.3,0-0.5,0.1c-0.2,0.1-0.3,0.2-0.5,0.4c-0.2,0.2-0.4,0.4-0.4,0.6c0,0.2,0,0.4,0.2,0.6
	c0.1,0.2,0.3,0.4,0.6,0.5c0.2,0.2,0.5,0.3,0.8,0.5c0.3,0.1,0.6,0.3,1,0.4s0.6,0.2,0.9,0.2c0,0,0-0.1-0.1-0.2c0-0.1-0.1-0.4-0.2-0.6
	s-0.2-0.5-0.3-0.8c-0.1-0.3-0.3-0.5-0.4-0.8c-0.1-0.2-0.3-0.5-0.5-0.6C138.7,96,138.5,95.9,138.4,95.9z M144.9,89.8
	c0.6-0.2,1.2-0.4,1.8-0.6c0.6-0.2,1.2-0.4,1.8-0.6c0,1,0.1,1.9,0.1,2.9c0,1,0,1.9,0.1,2.9c0,1,0,1.9,0.1,2.9c0,1,0.1,2,0.1,2.9
	c0,0.6-0.1,1.1-0.3,1.6c-0.2,0.5-0.4,0.9-0.7,1.3c-0.3,0.4-0.6,0.7-0.9,0.9c-0.3,0.2-0.6,0.3-0.9,0.3L144.9,89.8z M160.9,102.6
	c-0.1,0.4-0.3,0.9-0.6,1.3c-0.3,0.5-0.7,0.9-1.2,1.3c-0.5,0.4-1,0.8-1.6,1.2c-0.6,0.4-1.2,0.7-1.8,1c-0.6,0.3-1.3,0.5-1.9,0.6
	c-0.6,0.2-1.2,0.2-1.8,0.2c-0.2,0-0.4-0.1-0.7-0.2s-0.6-0.3-1-0.5c-0.4-0.2-0.7-0.4-1.1-0.6c-0.4-0.2-0.7-0.4-1-0.6
	c-0.3-0.2-0.5-0.3-0.6-0.5c-0.1-0.1-0.2-0.2,0-0.2c0.3,0,0.6,0,1.1,0c0.5,0,1-0.1,1.6-0.2c0.6-0.1,1.3-0.2,2-0.4
	c0.7-0.2,1.4-0.4,2.1-0.6c0.7-0.2,1.4-0.5,2.1-0.9c0.7-0.4,1.3-0.7,1.9-1.2c-0.4,0-0.8,0-1.3,0c-0.5,0-0.9,0-1.4,0
	c-0.5,0-1-0.1-1.4-0.2c-0.5-0.1-0.9-0.2-1.2-0.3c-0.4-0.2-0.6-0.4-0.9-0.6c-0.2-0.2-0.3-0.5-0.3-0.9c0-0.4,0.1-0.8,0.2-1.3
	c0.1-0.5,0.3-1,0.6-1.5c0.2-0.5,0.5-1,0.9-1.5c0.3-0.5,0.7-1,1.1-1.4c0.4-0.4,0.8-0.8,1.3-1c0.5-0.3,0.9-0.5,1.3-0.5
	c0.5-0.1,0.9,0,1.3,0.2c0.4,0.2,0.9,0.5,1.2,1c0.5,0.7,0.9,1.5,1.2,2.3c0.3,0.8,0.4,1.6,0.5,2.4h1.6v3.5H160.9z M156.4,96.3
	c-0.8,0.4-1.3,0.8-1.6,1.1c-0.3,0.4-0.4,0.7-0.2,1c0.2,0.3,0.5,0.5,1.1,0.6c0.6,0.1,1.4,0.2,2.4,0.1c0,0,0-0.1,0-0.2
	c0-0.1-0.1-0.3-0.1-0.5c-0.1-0.2-0.1-0.4-0.3-0.7c-0.1-0.2-0.2-0.5-0.3-0.7c-0.1-0.2-0.3-0.4-0.5-0.5
	C156.8,96.4,156.6,96.3,156.4,96.3z M165.2,89.8c0.3-0.1,0.6-0.2,0.9-0.3c0.3-0.1,0.6-0.2,0.9-0.3c0.3-0.1,0.6-0.2,0.9-0.3
	c0.3-0.1,0.6-0.2,0.9-0.3c0,1,0.1,1.9,0.1,2.9c0,1,0,1.9,0.1,2.9c0,1,0.1,1.9,0.1,2.9c0,1,0,1.9,0.1,2.9c-0.1,0.8-0.3,1.5-0.6,1.8
	c-0.3,0.4-0.8,0.6-1.3,0.6l-4.7,0v-3.5h3.5c0-0.6-0.1-1.2-0.1-1.8c0-0.6-0.1-1.2-0.1-1.8c-0.1-1-0.1-1.9-0.2-2.9
	C165.4,91.7,165.3,90.7,165.2,89.8z M171.6,89.8c0.6-0.2,1.2-0.4,1.8-0.6c0.6-0.2,1.2-0.4,1.8-0.6c0,1,0.1,1.9,0.1,2.9
	c0,1,0,1.9,0.1,2.9c0,1,0,1.9,0.1,2.9c0,1,0.1,2,0.1,2.9c0,0.6-0.1,1.1-0.3,1.6c-0.2,0.5-0.4,0.9-0.7,1.3c-0.3,0.4-0.6,0.7-0.9,0.9
	c-0.3,0.2-0.6,0.3-0.9,0.3L171.6,89.8z M213,102.6h-18.4c-0.5,0.9-1,1.6-1.6,2.2c-0.6,0.6-1.3,1-2,1.4c-0.7,0.3-1.4,0.6-2.1,0.7
	c-0.7,0.1-1.5,0.1-2.1,0c-0.7-0.1-1.4-0.3-2-0.5c-0.6-0.3-1.2-0.7-1.6-1.1c-0.5-0.5-0.8-1-1.1-1.6c-0.3-0.6-0.4-1.3-0.4-2.1
	c0-0.8,0.2-1.6,0.5-2.5c0.3-0.9,0.8-1.8,1.5-2.8l1.3-0.1c-0.4,0.8-0.6,1.6-0.6,2.3c-0.1,0.7,0,1.4,0.1,1.9c0.1,0.6,0.4,1.1,0.7,1.5
	c0.3,0.5,0.7,0.8,1.2,1.1c0.5,0.3,1,0.5,1.5,0.5c0.5,0.1,1.1,0.1,1.7,0c0.5-0.1,1.1-0.4,1.6-0.7c0.5-0.4,1.1-0.8,1.5-1.4
	c0-0.3,0-0.5,0-0.9c-0.1-0.3-0.1-0.6-0.3-1c-0.1-0.3-0.3-0.7-0.4-1c-0.1-0.3-0.3-0.6-0.5-0.9c-0.2-0.3-0.3-0.5-0.5-0.8
	c-0.2-0.2-0.3-0.4-0.5-0.5l2.4-2.8c0.2,0.3,0.5,0.6,0.8,1c0.3,0.4,0.5,0.9,0.8,1.3c0.2,0.5,0.5,1,0.7,1.6c0.2,0.5,0.3,1.1,0.4,1.6h0
	l3-2.5c0.9-0.6,1.7-1.2,2.6-1.8c0.9-0.6,1.8-1.1,2.8-1.6c0.4-0.2,0.9-0.3,1.4-0.3c0.5,0,1,0.1,1.4,0.2s1,0.3,1.4,0.5
	c0.5,0.2,0.9,0.5,1.3,0.7c0.6,0.4,1.1,0.8,1.4,1.1c0.3,0.3,0.5,0.7,0.6,1c0,0.4,0,0.8-0.1,1.2c-0.1,0.4-0.4,0.9-0.6,1.4h2.3V102.6z
	 M197.4,89l2.4,2.4l-2.1,2.1l-2.4-2.4L197.4,89z M203.8,96.6c-0.5,0.1-1,0.2-1.5,0.4c-0.5,0.2-0.9,0.4-1.4,0.6
	c-0.4,0.2-0.9,0.5-1.2,0.7c-0.4,0.3-0.8,0.5-1.2,0.8h5.4c0.3,0,0.6,0,0.9,0c0.4,0,0.7,0,1.1-0.1c0.4,0,0.7-0.1,1-0.2
	s0.5-0.2,0.7-0.4c0.1-0.2,0.2-0.4,0.1-0.5c0-0.2-0.1-0.3-0.3-0.5c-0.3-0.2-0.5-0.4-0.9-0.5c-0.3-0.1-0.6-0.2-1-0.3
	c-0.3-0.1-0.7-0.1-1-0.1C204.4,96.5,204.1,96.6,203.8,96.6z M215.7,102.6h-3v-3.5h3.1c-0.2-0.6-0.3-1.2-0.3-1.8
	c0-0.6,0.1-1.1,0.3-1.6l3.7-1.6c-0.3,0.6-0.4,1.2-0.4,1.8c0,0.6,0,1.1,0.2,1.6c0.2,0.5,0.5,0.9,0.9,1.2c0.4,0.3,1,0.5,1.6,0.5h0.8
	v3.5h-2.6c-0.7,0-1.4-0.2-1.9-0.5c-0.6-0.3-1-0.7-1.4-1.3L215.7,102.6z M217.4,104.3l2.4,2.4l-2.1,2.1l-2.4-2.4L217.4,104.3z
	 M228.1,93.2c0.2,0.3,0.5,0.6,0.7,0.9c0.2,0.3,0.4,0.7,0.6,1c0.2,0.4,0.4,0.7,0.5,1.1c0.1,0.4,0.2,0.8,0.2,1.2c0,0.3,0,0.7-0.1,1.1
	c-0.1,0.4-0.3,0.7-0.5,1.1c-0.2,0.4-0.5,0.7-0.8,1c-0.3,0.3-0.6,0.6-1,0.9c-0.3,0.2-0.7,0.5-1.1,0.6c-0.4,0.1-0.7,0.2-1.1,0.2h-1.2
	v0h-2.2v-3.5h2.2v0h1.6c0.4,0,0.6-0.1,0.7-0.3c0.1-0.2,0.2-0.5,0.1-0.8c0-0.3-0.2-0.7-0.4-1c-0.2-0.4-0.5-0.7-0.8-1L228.1,93.2z
	 M225.8,88.3l2.4,2.4l-2.1,2.1l-2.4-2.4L225.8,88.3z"/>
<path class="st1" d="M224.1,62.8c-1,0.9-2.1,2.3-3,3.5c-5.3,6.6-10.1,10.4-18.6,13.6c-1.6,0.6-3.3,1-5,1.4l-4.9,1.7l44.4-0.1
	c0.8,1.5,0.8,5,5.6,12.5c6.5,10.1,17.1,17.8,28.6,21.5l2.8,0.7c0.7,0.2,0.4,0.1,1,0.3h4.2c2.2-1.3,4.3-0.7,5.7-6.3
	c2-8.5-0.5-22.5,9-27.2c8.6-4.3,23.2,1.3,31-5c2.2-1.8,4-5.3,5.9-6.3c0,0,0.1,0,0.1,0.1l0.5,0.5c2.7,3.6,5.4,5.9,10.2,7.6
	c4.3,1.5,12.8,1.6,17.8,1.7c6.3,0.1,12.8-0.1,19.1-0.3c6.6-0.2,10.6-1.8,12.6-6.8c3.6-8.9-0.1-60.8-0.7-73.8
	c-3.3,0.5-8.2,2.4-10.9,4.2c-1.3,0.9-1.8,1.4-2.8,2.5c-3.5,3.5-4.6,9.3-4.8,15.6c-0.2,6.3,0.4,13.2,1,19.3
	c0.3,3.3,1.9,16.6,1.4,18.9c-8.8,0.2-24.4,1-31.3-2.6c-11.1-5.7-3.9-23.8-4.3-26c-4.5-0.8-10.1-2-14.3,0c-3.3,1.5-5.9,5.3-7.1,9.4
	c-1.6,5.4-0.3,10.1-1,15.4c-0.5,3.4-1.1,3.5-4.5,3.9c-12.5,1.3-19.5-4.6-30.8,10c-4.1,5.3-9.1,14.9-9.5,23.7
	c-4.8-0.1-9.4-2.6-12.2-4.8c-2.4-1.9-6.2-5.8-7.3-9.5c1.2-0.8,8.7-2,16.4-7.4c4.6-3.2,8.3-7.9,11.4-12.5c4.8-7.4,13.7-26.4,6.5-35.9
	c-3.7-4.9-10.4-6-18.1-3.8c-3,0.9-5.8,2.1-8.3,3.6c-2,1.2-5.4,3.5-7,5c-4.7,4.5-7.2,7.2-10.6,13.2c-2.3,4-3.8,8.5-4.7,13.2
	c-0.3,1.5-0.4,3.8-0.8,5.2L224.1,62.8z M249.7,63.1c0.5-6.4,3.9-12,7.2-15.1c2.1-2,10.3-8.5,15.3-5.5c1.3,5.5-3.8,12.7-6.4,14.8
	C261.5,60.8,256.8,62.6,249.7,63.1z"/>
<defs>
	<filter id="Adobe_OpacityMaskFilter" filterUnits="userSpaceOnUse" x="95.7" y="28.8" width="132.6" height="54.2">
		<feColorMatrix  type="matrix" values="1 0 0 0 0  0 1 0 0 0  0 0 1 0 0  0 0 0 1 0"/>
	</filter>
</defs>
<mask maskUnits="userSpaceOnUse" x="95.7" y="28.8" width="132.6" height="54.2" id="SVGID_1_">
	<g class="st2">
		
			<linearGradient id="SVGID_2_" gradientUnits="userSpaceOnUse" x1="-39.5826" y1="410.0639" x2="-69.8968" y2="412.5496" gradientTransform="matrix(1 0 0 1 141.7141 -349.2445)">
			<stop  offset="0" style="stop-color:#FFFFFF"/>
			<stop  offset="1" style="stop-color:#000000"/>
		</linearGradient>
		<rect x="95.7" y="28.8" class="st3" width="132.6" height="54.2"/>
	</g>
</mask>
<path class="st4" d="M95.7,62.9c0.2,3.9,0.9,7,1.8,10.5c0.7,2.5,2.5,7.3,2.7,9.6c0.8-0.4,3.3-0.8,4.5-1.2c1.6-0.5,2.7-1.2,3.6-2.1
	c2.6-2.6,3.4-5.4,5.3-6.5c3.4,2,3.4,9,12.7,9.5c7,0.4,15.1,0,22.2,0c3.5,0,41.9-0.2,44.3,0.2l4.9-1.7c1.8-0.4,3.4-0.8,5-1.4
	c8.6-3.2,13.3-6.9,18.6-13.6c0.9-1.1,2-2.6,3-3.5c0.3-4.1,7.3-10.3,2.4-19.6c-2.9-5.6-7.1-9.1-14-11.6c-15-5.4-28.7-2.3-41.1,4.3
	c-16.1,8.4-31.5,25.5-36.9,26.5c-3.9,0.7-7.3-1.6-8.8-3.6c-4.4-5.7-1.8-14.6-1.1-21.6c-9.3-1.2-16.9-1-19,7.5
	c-1.1,4.2-0.1,9-0.8,13.3C104.1,63.1,100.6,62.6,95.7,62.9 M155.6,63c1.4-3.7,16-10.8,21.2-12.5c15.2-5.1,32,0.6,31.2,6.7
	c-0.7,5.4-15.2,5.8-19.2,5.9C177.9,63.2,166.5,63.6,155.6,63z"/>
<path class="st1" d="M4.7,59.8c1.6,8.9,5.4,20.6,11.6,26.3c2.4,2.2,4.8,4.1,8.7,1.8C39,79.7,45,51.3,60.6,54.3
	c2.4,0.5,3.2,0.5,3.5,2.9c0.5,3.9-0.1,8,0.6,12c1.3,7.2,5.7,11,12.7,12.6c3.3,0.8,7.4,1.6,10.9,1.8c4.5,0.3,7.6-0.3,11.8-0.6
	c-0.2-2.2-2-7.1-2.7-9.6c-0.9-3.5-1.6-6.6-1.8-10.5c-4.3-0.1-8.9,0.7-13.3,0.3c-4.1-0.3-5.7,5.1-5.9-7.7
	c-0.2-12.8-1.3-23.3-12.9-23.8c-13.8,1.2-21,10.6-28,22.1c-3.7,6-10.2,18.6-17.2,7.3c-4.2-6.8-6-17.6-6.5-27
	C1.1,40.1,2.8,49.4,4.7,59.8"/>
<path class="st1" d="M422,55.4V2.6c-2.5,0.1-7.9,2-10,2.9c-11.3,4.8-10.7,16.1-10,28c1,16.3,1.3,32.6,2.7,48.9
	c4,1.2,10.3-6.1,12.5-9.5C423,63.9,421.3,58,422,55.4"/>
<path class="st1" d="M69.5,0h-2.7c-1.3,0.6-10,1.5-10.1,10.3c0,5.7,4.2,10.5,9.6,10.8c12.4,0.8,14.7-14.2,6.8-19.5
	C71.8,0.6,70.8,0.7,69.5,0"/>
<path class="st1" d="M45.6,0h-2.7c-1.1,0.6-2.7,0.7-3.8,1.2c-10.6,4.7-6.4,19.2,3.5,19.8c11.9,0.7,15-13.9,6.8-19.5
	C48.1,0.8,46.8,0.6,45.6,0"/>
<path class="st1" d="M326.5,0.9c-15.1,2.6-10.2,22.9,2.4,20.9c5.5-0.9,10-5.1,9.1-11.7C337.3,4.8,332.6-0.1,326.5,0.9"/>
<path class="st5" d="M158.7,0h-2.9c-1.8,0.9-10,1.9-9.8,10.5c0.3,13.4,19.8,14.1,21,1.4c0.4-4.1-1.5-8.1-4.6-10.3
	C161,0.6,160,0.7,158.7,0"/>
</svg>
